<svg xmlns="http://www.w3.org/2000/svg" xmlns:xlink="http://www.w3.org/1999/xlink" width="150" zoomAndPan="magnify" viewBox="0 0 112.5 112.499997" height="150" preserveAspectRatio="xMidYMid meet" version="1.2"><defs><clipPath id="0e40ec374d"><path d="M 0 0 L 112.003906 0 L 112.003906 112.003906 L 0 112.003906 Z M 0 0 "/></clipPath><clipPath id="d2d7ccaa9a"><path d="M 31.359375 0 L 80.640625 0 C 88.957031 0 96.9375 3.304688 102.816406 9.183594 C 108.699219 15.066406 112.003906 23.042969 112.003906 31.359375 L 112.003906 80.640625 C 112.003906 88.957031 108.699219 96.9375 102.816406 102.816406 C 96.9375 108.699219 88.957031 112.003906 80.640625 112.003906 L 31.359375 112.003906 C 23.042969 112.003906 15.066406 108.699219 9.183594 102.816406 C 3.304688 96.9375 0 88.957031 0 80.640625 L 0 31.359375 C 0 23.042969 3.304688 15.066406 9.183594 9.183594 C 15.066406 3.304688 23.042969 0 31.359375 0 Z M 31.359375 0 "/></clipPath><clipPath id="50177b7f4c"><path d="M 7.714844 30 L 38 30 L 38 79 L 7.714844 79 Z M 7.714844 30 "/></clipPath><clipPath id="00003d16c1"><path d="M 74 30 L 104.035156 30 L 104.035156 79 L 74 79 Z M 74 30 "/></clipPath><clipPath id="bf2aafb0de"><path d="M 42 27 L 70 27 L 70 85.472656 L 42 85.472656 Z M 42 27 "/></clipPath></defs><g id="1416fb6975"><g clip-rule="nonzero" clip-path="url(#0e40ec374d)"><g clip-rule="nonzero" clip-path="url(#d2d7ccaa9a)"><path style=" stroke:none;fill-rule:nonzero;fill:#00c950;fill-opacity:1;" d="M 0 0 L 112.003906 0 L 112.003906 112.003906 L 0 112.003906 Z M 0 0 "/></g></g><g clip-rule="nonzero" clip-path="url(#50177b7f4c)"><path style=" stroke:none;fill-rule:nonzero;fill:#ffffff;fill-opacity:1;" d="M 35.988281 71.050781 L 33.085938 68.339844 L 18.179688 54.382812 L 33.085938 40.433594 L 35.988281 37.722656 C 37.699219 36.125 37.789062 33.429688 36.191406 31.722656 C 34.59375 30.011719 31.898438 29.921875 30.191406 31.519531 L 19.625 41.402344 L 9.0625 51.285156 C 8.203125 52.085938 7.714844 53.210938 7.714844 54.382812 C 7.714844 55.5625 8.203125 56.679688 9.0625 57.480469 L 30.191406 77.246094 C 31.007812 78.011719 32.050781 78.390625 33.085938 78.390625 C 34.222656 78.390625 35.351562 77.933594 36.183594 77.042969 C 37.789062 75.332031 37.699219 72.648438 35.988281 71.050781 Z M 35.988281 71.050781 "/></g><g clip-rule="nonzero" clip-path="url(#00003d16c1)"><path style=" stroke:none;fill-rule:nonzero;fill:#ffffff;fill-opacity:1;" d="M 102.691406 51.285156 L 92.125 41.402344 L 81.5625 31.519531 C 79.851562 29.914062 77.160156 30.003906 75.558594 31.714844 C 73.960938 33.421875 74.046875 36.117188 75.761719 37.714844 L 78.667969 40.425781 L 86.328125 47.597656 L 93.574219 54.382812 L 78.65625 68.332031 L 75.753906 71.039062 C 74.046875 72.640625 73.953125 75.332031 75.550781 77.042969 C 76.386719 77.933594 77.523438 78.390625 78.648438 78.390625 C 79.683594 78.390625 80.730469 78.011719 81.554688 77.246094 L 102.683594 57.480469 C 103.539062 56.679688 104.027344 55.550781 104.027344 54.382812 C 104.035156 53.203125 103.546875 52.085938 102.691406 51.285156 Z M 102.691406 51.285156 "/></g><g clip-rule="nonzero" clip-path="url(#bf2aafb0de)"><path style=" stroke:none;fill-rule:nonzero;fill:#ffffff;fill-opacity:1;" d="M 66.425781 27.320312 C 64.230469 26.503906 61.78125 27.621094 60.964844 29.820312 L 42.445312 79.609375 C 41.628906 81.808594 42.75 84.257812 44.945312 85.074219 C 45.433594 85.257812 45.929688 85.34375 46.425781 85.34375 C 48.152344 85.34375 49.769531 84.28125 50.410156 82.574219 L 68.925781 32.773438 C 69.742188 30.578125 68.632812 28.136719 66.425781 27.320312 Z M 66.425781 27.320312 "/></g></g></svg>